<svg xmlns="http://www.w3.org/2000/svg" viewBox="0 0 780 420" font-family="monospace" font-size="12">
  <text x="390" y="28" text-anchor="middle" fill="#cdd6f4" font-size="14" font-weight="bold">Oracle Price Manipulation → Unbacked Minting</text>

  <!-- Left: normal state -->
  <rect x="20" y="55" width="340" height="340" rx="10" fill="#181825" stroke="#a6e3a1" stroke-width="1" opacity="0.9"/>
  <text x="190" y="80" text-anchor="middle" fill="#a6e3a1" font-size="13" font-weight="bold">NORMAL STATE</text>

  <rect x="40" y="100" width="300" height="60" rx="6" fill="#1e1e2e" stroke="#6c7086"/>
  <text x="190" y="122" text-anchor="middle" fill="#89b4fa">Oracle: getPrice(BCH)</text>
  <text x="190" y="142" text-anchor="middle" fill="#a6e3a1" font-size="14">$386.73</text>

  <text x="190" y="185" text-anchor="middle" fill="#6c7086">↓ pledge(1 BCH)</text>

  <rect x="40" y="200" width="300" height="80" rx="6" fill="#1e1e2e" stroke="#6c7086"/>
  <text x="190" y="222" text-anchor="middle" fill="#f9e2af">BLC minted = collateral × price ratio</text>
  <text x="190" y="245" text-anchor="middle" fill="#cdd6f4" font-size="13">= 1 × (386.73 / 1.00)</text>
  <text x="190" y="265" text-anchor="middle" fill="#a6e3a1" font-size="14" font-weight="bold">= 386.73 BLC ✓</text>

  <rect x="40" y="300" width="300" height="50" rx="6" fill="#1e1e2e" stroke="#6c7086"/>
  <text x="190" y="322" text-anchor="middle" fill="#6c7086">1 BCH collateral → 386.73 BLC debt</text>
  <text x="190" y="338" text-anchor="middle" fill="#a6e3a1">Fully backed ✓</text>

  <!-- Right: manipulated state -->
  <rect x="420" y="55" width="340" height="340" rx="10" fill="#181825" stroke="#f38ba8" stroke-width="1" opacity="0.9"/>
  <text x="590" y="80" text-anchor="middle" fill="#f38ba8" font-size="13" font-weight="bold">MANIPULATED STATE</text>

  <rect x="440" y="100" width="300" height="60" rx="6" fill="#1e1e2e" stroke="#f38ba8"/>
  <text x="590" y="122" text-anchor="middle" fill="#89b4fa">Oracle: getPrice(BCH)</text>
  <text x="590" y="142" text-anchor="middle" fill="#f38ba8" font-size="14">$38,673,000,000</text>
  <text x="590" y="156" text-anchor="middle" fill="#f38ba8" font-size="10">↑↑↑ pushed by compromised operator</text>

  <text x="590" y="185" text-anchor="middle" fill="#6c7086">↓ pledge(0.000256 BCH)</text>

  <rect x="440" y="200" width="300" height="80" rx="6" fill="#1e1e2e" stroke="#f38ba8"/>
  <text x="590" y="222" text-anchor="middle" fill="#f9e2af">BLC minted = collateral × price ratio</text>
  <text x="590" y="245" text-anchor="middle" fill="#cdd6f4" font-size="13">= 0.000256 × (38.673B / 1.00)</text>
  <text x="590" y="265" text-anchor="middle" fill="#f38ba8" font-size="14" font-weight="bold">= 9,910,949 BLC ✗</text>

  <rect x="440" y="300" width="300" height="50" rx="6" fill="#1e1e2e" stroke="#f38ba8"/>
  <text x="590" y="322" text-anchor="middle" fill="#6c7086">0.000256 BCH collateral → 9.91M BLC debt</text>
  <text x="590" y="338" text-anchor="middle" fill="#f38ba8">0.001% backed ✗ — hyperinflation</text>
</svg>
